<?xml version="1.0" standalone="no"?>
<!DOCTYPE svg PUBLIC "-//W3C//DTD SVG 20010904//EN"
 "http://www.w3.org/TR/2001/REC-SVG-20010904/DTD/svg10.dtd">
<svg version="1.0" xmlns="http://www.w3.org/2000/svg"
 width="900.000000pt" height="900.000000pt" viewBox="0 0 900.000000 900.000000"
 preserveAspectRatio="xMidYMid meet">
<metadata>
Created by potrace 1.10, written by Peter Selinger 2001-2011
</metadata>
<g transform="translate(0.000000,900.000000) scale(0.100000,-0.100000)"
fill="#2c77fa" stroke="none">
<path d="M2690 7945 c-78 -14 -144 -36 -196 -65 -177 -98 -273 -208 -354 -405
-16 -39 -40 -169 -40 -222 0 -83 30 -243 62 -323 5 -14 21 -59 34 -100 13 -41
28 -84 33 -95 12 -30 32 -86 41 -120 5 -16 25 -75 45 -130 20 -55 40 -113 45
-130 5 -16 25 -75 45 -130 20 -55 40 -113 45 -130 5 -16 25 -75 45 -130 20
-55 40 -113 45 -130 5 -16 25 -75 45 -130 20 -55 40 -113 45 -130 5 -16 25
-75 45 -130 20 -55 40 -113 45 -130 5 -16 25 -75 45 -130 20 -55 40 -113 45
-130 5 -16 25 -75 45 -130 20 -55 40 -113 45 -130 8 -30 20 -64 46 -137 8 -21
20 -55 28 -75 26 -74 38 -108 46 -138 9 -32 35 -107 49 -140 13 -32 32 -88 41
-120 5 -16 18 -55 30 -85 12 -30 25 -68 30 -85 11 -39 29 -91 46 -133 8 -18
14 -37 14 -43 0 -6 6 -25 13 -42 19 -45 37 -97 47 -132 26 -100 89 -211 154
-272 160 -148 394 -163 566 -35 144 107 208 292 167 484 -24 114 -38 188 -46
253 -5 33 -13 78 -19 100 -5 22 -13 64 -16 93 -6 46 -5 52 11 52 10 0 72 -44
138 -96 170 -135 185 -150 185 -190 0 -18 7 -68 15 -111 8 -43 15 -94 15 -113
0 -58 10 -80 35 -80 46 0 54 25 57 175 l3 140 448 3 c501 3 470 8 420 -71
-101 -157 -230 -437 -286 -622 -53 -177 -68 -242 -96 -415 -38 -240 -50 -537
-31 -815 6 -99 15 -256 20 -350 9 -183 25 -332 42 -380 5 -16 14 -48 18 -70
36 -189 96 -270 228 -311 61 -18 101 -18 170 2 45 13 68 28 112 73 64 66 78
106 106 293 15 98 16 124 5 165 -37 141 -61 396 -77 825 -8 194 8 307 73 523
103 338 360 717 643 946 30 24 64 52 75 62 20 18 178 124 245 165 78 47 109
102 129 232 11 72 28 142 44 180 49 116 46 198 -11 277 -39 55 -87 77 -168 78
-42 0 -81 -6 -97 -14 -23 -12 -28 -12 -43 3 -16 16 -81 17 -943 15 -746 -2
-931 0 -951 11 -24 12 -81 54 -125 92 -11 9 -72 57 -135 105 -97 75 -115 93
-117 118 -4 42 -32 221 -44 275 -18 80 -25 104 -58 174 -62 131 -149 240 -260
326 -41 32 -44 33 -57 16 -21 -30 -40 -12 -52 51 -6 32 -16 85 -23 118 -6 33
-15 83 -19 110 -4 28 -12 79 -19 115 -7 36 -19 99 -26 140 -7 41 -19 104 -26
140 -7 36 -15 85 -19 110 -4 25 -12 74 -19 110 -25 132 -41 217 -56 310 -25
145 -44 231 -62 275 -8 22 -22 58 -31 80 -55 138 -200 288 -342 352 -82 38
-104 45 -185 59 -93 16 -174 16 -265 -1z m658 -1482 c5 -10 14 -45 22 -78 23
-111 41 -190 55 -250 7 -33 21 -94 30 -135 9 -41 22 -102 30 -135 7 -33 21
-94 30 -135 23 -106 43 -195 60 -265 7 -33 21 -94 29 -135 9 -41 23 -102 30
-135 8 -33 22 -94 30 -135 9 -41 23 -102 30 -135 8 -33 22 -94 30 -135 9 -41
23 -102 30 -135 8 -33 22 -94 30 -135 9 -41 23 -102 30 -135 8 -33 22 -94 30
-135 9 -41 23 -102 31 -135 15 -66 67 -299 91 -410 8 -38 22 -98 31 -133 l16
-63 -34 -35 c-19 -19 -63 -49 -99 -66 -58 -28 -75 -32 -155 -32 -82 0 -96 3
-158 34 -101 50 -139 91 -166 181 -13 41 -28 90 -35 109 -26 72 -38 106 -46
135 -5 17 -13 44 -19 60 -12 30 -137 413 -370 1125 -68 206 -129 391 -136 410
-11 30 -156 470 -295 899 -22 68 -39 126 -37 128 2 2 37 -7 78 -20 132 -42
172 -50 298 -55 122 -4 254 12 321 40 14 6 39 14 55 19 17 4 48 14 70 23 51
19 53 19 63 -1z"/>
</g>
</svg>
