<?xml version="1.0" standalone="no"?>
<!DOCTYPE svg PUBLIC "-//W3C//DTD SVG 20010904//EN"
 "http://www.w3.org/TR/2001/REC-SVG-20010904/DTD/svg10.dtd">
<svg version="1.0" xmlns="http://www.w3.org/2000/svg"
 width="300.000000pt" height="300.000000pt" viewBox="0 0 300.000000 300.000000"
 preserveAspectRatio="xMidYMid meet">
<metadata>
Created by potrace 1.10, written by Peter Selinger 2001-2011
</metadata>
<g transform="translate(0.000000,300.000000) scale(0.100000,-0.100000)"
fill="#000000" stroke="none">
<path d="M394 2103 c-28 -30 -37 -58 -32 -99 4 -35 -31 -17 573 -284 253 -111
464 -206 468 -210 18 -16 -29 -63 -97 -97 -88 -44 -126 -70 -126 -88 0 -7 15
-22 33 -33 54 -31 68 -75 66 -199 -1 -95 1 -108 17 -119 11 -6 77 -33 147 -60
120 -45 129 -47 145 -31 39 40 24 252 -23 322 l-23 32 35 17 c25 12 39 14 54
6 15 -9 19 -7 19 5 0 18 57 105 68 105 4 0 192 -82 417 -182 257 -113 423
-181 445 -182 30 -1 37 4 54 35 33 61 22 69 -285 211 -1543 710 -1910 878
-1919 878 -6 0 -22 -12 -36 -27z m56 -29 c0 -27 -35 -94 -50 -94 -10 0 -20 26
-20 53 0 18 2 19 10 7 7 -12 12 -12 21 -3 9 9 9 16 1 26 -9 10 -9 16 0 25 20
20 38 13 38 -14z m485 -183 c1234 -567 1684 -776 1680 -779 -4 -4 -345 150
-1050 473 -699 321 -1059 485 -1066 485 -4 0 -9 6 -12 14 -7 16 -31 27 448
-193z m-445 148 c5 -7 77 -41 240 -114 58 -26 128 -57 155 -70 28 -12 75 -34
105 -48 30 -13 84 -38 120 -54 36 -17 106 -48 155 -71 50 -22 354 -160 677
-306 324 -147 608 -275 633 -286 25 -11 45 -26 45 -35 0 -22 -14 -19 -48 10
-17 14 -286 140 -599 281 -578 260 -819 369 -908 409 -356 163 -500 225 -521
225 -14 0 -34 5 -45 10 -16 9 -19 7 -19 -10 0 -22 -22 -27 -37 -7 -7 8 -6 23
3 44 13 30 31 39 44 22z m1045 -514 c523 -235 965 -435 984 -444 39 -18 50
-38 27 -47 -18 -7 -319 124 -2051 895 -18 8 -17 10 15 24 21 9 42 12 55 7 11
-4 448 -200 970 -435z m-95 -41 c0 -25 -50 -78 -98 -105 -31 -18 -59 -34 -61
-36 -2 -1 4 -12 13 -22 10 -11 23 -39 30 -63 7 -24 16 -42 20 -40 3 1 22 -4
41 -12 19 -8 35 -11 35 -6 0 5 -16 14 -35 20 -28 9 -37 20 -53 63 -22 58 -21
64 15 78 19 7 30 6 42 -5 9 -9 48 -28 86 -43 38 -15 71 -35 73 -43 3 -8 1 -12
-3 -8 -10 9 -34 -14 -28 -28 6 -16 -25 -44 -48 -44 -12 0 -17 -4 -13 -11 8
-13 53 -3 75 17 15 14 18 12 28 -17 6 -18 11 -33 11 -35 0 -2 -15 -1 -32 2
l-33 5 38 -21 37 -20 0 -81 c0 -69 -2 -80 -16 -75 -8 3 -12 2 -9 -4 10 -16 -3
-12 -105 28 l-95 38 2 94 c2 101 -13 89 -18 -13 -1 -29 -7 -64 -12 -80 -19
-56 -26 -36 -21 55 8 119 -5 169 -57 221 -46 46 -47 51 -14 43 18 -5 23 -3 19
7 -3 9 19 26 65 51 43 23 77 48 88 66 16 27 33 39 33 24z m148 -71 l92 -44
-17 -23 -18 -24 -45 18 c-25 10 -75 30 -112 46 l-67 27 15 29 c18 34 19 34
152 -29z m-58 -60 c61 -26 110 -51 110 -54 0 -19 -51 -15 -109 8 -124 49 -153
67 -134 86 11 11 19 9 133 -40z m-73 -389 c114 -44 170 -74 112 -60 -51 12
-239 88 -239 97 0 13 -5 14 127 -37z"/>
<path d="M451 2003 c-10 -26 -10 -27 4 -9 8 11 15 23 15 28 0 15 -7 8 -19 -19z"/>
</g>
</svg>
